<svg width="12" height="19" viewBox="0 0 12 19" fill="none" xmlns="http://www.w3.org/2000/svg">
<path fill-rule="evenodd" clip-rule="evenodd" d="M8.68499 0.335998C9.40818 0.514351 10.0689 0.886982 10.5956 1.41361C11.1224 1.94024 11.4952 2.60083 11.6738 3.32398C12.1122 5.08309 12.1087 6.92335 11.6634 8.68075C11.5834 9.00475 11.465 9.31274 11.3146 9.59994H11.3162L6.1218 18.3999L0.696234 9.62954C0.535845 9.32959 0.413309 9.01089 0.331436 8.68075C-0.110479 6.9225 -0.110479 5.08223 0.331436 3.32398C0.509178 2.60002 0.881646 1.9385 1.40849 1.41109C1.93533 0.883691 2.59645 0.510515 3.32022 0.331998C4.19757 0.112925 5.09832 0.00143937 6.0026 0C6.8914 0 7.79619 0.110399 8.68499 0.335998ZM8.05219 9.13274C8.31442 9.06765 8.55396 8.93234 8.74508 8.74136C8.93621 8.55037 9.07169 8.31093 9.13698 8.04875C9.47298 6.68316 9.47298 5.31677 9.13698 3.95118C9.07161 3.68903 8.9361 3.44963 8.74499 3.25867C8.55388 3.0677 8.31438 2.93236 8.05219 2.86718C6.70713 2.52568 5.29807 2.52568 3.95301 2.86718C3.69078 2.93228 3.45124 3.06759 3.26012 3.25857C3.069 3.44955 2.93351 3.68899 2.86822 3.95118C2.52658 5.29567 2.52658 6.70426 2.86822 8.04875C2.93351 8.31093 3.069 8.55037 3.26012 8.74136C3.45124 8.93234 3.69078 9.06765 3.95301 9.13274C5.29806 9.47428 6.70714 9.47428 8.05219 9.13274Z" fill="#459AE9"/>
</svg>
