<svg width="18" height="14" viewBox="0 0 18 14" fill="none" xmlns="http://www.w3.org/2000/svg">
<path d="M0.0378882 1.93286C0.0189441 2.06649 0 2.20011 0 2.33374V12.2443C0 12.3557 0.0189441 12.467 0.0378882 12.5784L5.38013 6.81021L0.0378882 1.93286Z" fill="#459AE9"/>
<path d="M17.962 1.93286L12.6387 6.78794L17.9809 12.5561C17.9999 12.4448 17.9999 12.3334 17.9999 12.2221V2.33374C17.9999 2.20011 17.9809 2.06649 17.962 1.93286Z" fill="#459AE9"/>
<path d="M10.2671 8.94878C9.54722 9.61691 8.44846 9.61691 7.72858 8.94878L6.59194 7.92432L1.09814 13.8484C1.19287 13.8707 1.28759 13.8929 1.38231 13.8929H16.5755C16.6702 13.8929 16.7649 13.8707 16.8596 13.8484L11.4037 7.92432L10.2671 8.94878Z" fill="#459AE9"/>
<path d="M9.34079 7.52304L16.8237 0.685845C16.7479 0.663574 16.6911 0.663574 16.6153 0.663574H1.40321C1.32743 0.663574 1.2706 0.663574 1.19482 0.685845L8.67775 7.52304C8.86719 7.70121 9.13241 7.70121 9.34079 7.52304Z" fill="#459AE9"/>
</svg>
