<svg width="45" height="44" viewBox="0 0 45 44" fill="none" xmlns="http://www.w3.org/2000/svg">
<circle cx="22.4996" cy="21.6983" r="21.6983" fill="#37A0CF"/>
<path d="M27.5103 30.9409C28.295 30.941 29.0632 30.7155 29.7233 30.2911C30.3833 29.8667 30.9074 29.2614 31.233 28.5474C31.5585 27.8334 31.6719 27.0408 31.5595 26.2642C31.4471 25.4876 31.1137 24.7596 30.599 24.1673C30.0844 23.5749 29.4102 23.143 28.6569 22.9231C27.9036 22.7033 27.103 22.7048 26.3505 22.9273C25.598 23.1499 24.9254 23.5842 24.4129 24.1785C23.9005 24.7728 23.5697 25.5019 23.4601 26.2789C21.0476 25.03 19.0931 23.0483 17.8776 20.6187C18.4518 20.5649 19.008 20.3902 19.5098 20.106C20.0116 19.8218 20.4476 19.4346 20.789 18.9698C21.3845 18.2202 21.6858 17.279 21.6364 16.3229C21.5871 15.3668 21.1904 14.4616 20.521 13.7773C20.3641 13.6108 20.192 13.4591 20.0071 13.3244C19.4031 12.8523 18.6787 12.5593 17.9163 12.479C17.1539 12.3986 16.3843 12.5341 15.6952 12.87C15.0061 13.2059 14.4252 13.7286 14.0188 14.3786C13.6124 15.0287 13.3969 15.7798 13.3967 16.5464C13.3967 16.6866 13.4041 16.8266 13.4189 16.966C13.3741 17.3783 13.3998 17.7953 13.4947 18.199C13.637 18.7961 13.8274 19.3821 14.0252 19.9643C14.4063 21.1749 14.9564 22.3256 15.6593 23.3823C16.3466 24.3557 17.116 25.2685 17.9589 26.1107C18.9921 27.1877 20.1515 28.1361 21.412 28.9353C22.7374 29.7468 24.1977 30.2292 25.6765 30.671C26.0022 30.7661 26.3366 30.828 26.6747 30.8559C26.9497 30.9125 27.2296 30.9409 27.5103 30.9409Z" fill="white"/>
</svg>
