<svg width="19" height="20" viewBox="0 0 19 20" fill="none" xmlns="http://www.w3.org/2000/svg">
<path d="M15.8152 14.8399L13.3721 12.9175C12.8715 12.517 12.1505 12.5971 11.73 13.0777C11.2894 13.5783 11.0091 13.9188 10.909 13.9989C10.168 14.7398 8.62604 13.6584 6.98393 12.0163C5.34183 10.3742 4.28047 8.85227 5.02142 8.11132C5.10152 8.03122 5.44196 7.73083 5.9426 7.29027C6.42322 6.86973 6.50332 6.14881 6.10281 5.64817L4.18035 3.20504C3.83991 2.7845 3.25917 2.64432 2.77855 2.84458C2.11771 3.12494 0.936193 4.10619 0.615783 4.4266C-1.14647 6.20888 1.05635 10.2541 4.90127 14.119C8.74619 17.984 12.8114 20.1868 14.5736 18.4045C14.8941 18.0841 15.8753 16.9026 16.1557 16.2417C16.376 15.7411 16.2358 15.1804 15.8152 14.8399Z" fill="#459AE9"/>
<path d="M9.80724 6.24896C9.28657 6.12881 8.78593 6.52932 8.82598 7.07001C8.84601 7.41045 9.10634 7.69081 9.42675 7.79093C9.84729 7.89106 10.2478 8.11134 10.5682 8.43175C10.8886 8.75216 11.1089 9.15268 11.209 9.57321C11.2891 9.91365 11.5695 10.154 11.93 10.174C12.4706 10.214 12.8712 9.71339 12.751 9.19273C12.6108 8.51186 12.2504 7.85101 11.7097 7.31032C11.169 6.76963 10.5081 6.40916 9.80724 6.24896Z" fill="#459AE9"/>
<path d="M15.0945 10.4144C15.5751 10.4545 15.9756 10.0339 15.9355 9.55331C15.7954 7.95126 15.1145 6.36924 13.8929 5.14767C12.6714 3.92611 11.0893 3.24524 9.48728 3.10506C9.00667 3.06501 8.58613 3.46552 8.62618 3.94614C8.64621 4.32662 8.94659 4.64703 9.3471 4.68708C10.6087 4.78721 11.8303 5.32791 12.7715 6.28914C13.7327 7.25037 14.2534 8.47193 14.3735 9.71352C14.3735 10.094 14.6939 10.3944 15.0945 10.4144Z" fill="#459AE9"/>
<path d="M16.0555 2.96451C14.1531 1.0821 11.6899 0.0808227 9.18674 0.000720142C8.72615 -0.0193055 8.34566 0.381207 8.38571 0.841797C8.40574 1.24231 8.74617 1.56272 9.14668 1.58274C11.2494 1.66285 13.332 2.50392 14.9141 4.10597C16.5161 5.70802 17.3572 7.79069 17.4173 9.87335C17.4373 10.2739 17.7377 10.6143 18.1582 10.6343C18.6188 10.6744 19.0193 10.2939 18.9993 9.8333C18.9392 7.3301 17.9379 4.86695 16.0555 2.96451Z" fill="#459AE9"/>
</svg>
