<svg width="45" height="44" viewBox="0 0 45 44" fill="none" xmlns="http://www.w3.org/2000/svg">
<circle cx="22.4996" cy="22.2558" r="21.6983" fill="#4BC75A"/>
<path d="M25.8618 26.6736C26.1267 26.6497 26.5115 26.4873 26.8459 26.2728C27.1777 26.06 27.5191 25.7584 27.6422 25.4177L27.6423 25.4172C27.7473 25.1242 27.8005 24.8506 27.8193 24.6338C27.8287 24.5256 27.8299 24.4286 27.8236 24.3483C27.8182 24.279 27.8053 24.1892 27.7645 24.1212L27.7637 24.1199L20.5571 20.9882L20.6976 21.1305C20.7766 21.0525 20.8714 20.9381 20.9576 20.8341C20.9963 20.7874 21.0333 20.7428 21.0662 20.7045M25.8618 26.6736L25.8438 26.4744M25.8618 26.6736C25.8618 26.6736 25.8618 26.6736 25.8618 26.6736L25.8438 26.4744M25.8618 26.6736C25.801 26.6791 25.7598 26.6891 25.7054 26.7023C25.6744 26.7099 25.639 26.7184 25.5933 26.7278C25.476 26.7519 25.3392 26.7671 25.1388 26.7478C24.7511 26.7105 24.1224 26.5432 22.9088 26.0692L22.9087 26.0692C20.597 25.1657 19.0805 22.9219 18.7924 22.4956C18.7701 22.4627 18.7552 22.4406 18.7478 22.4308L18.7476 22.4306C18.6849 22.3478 18.4336 22.0165 18.1976 21.5552C17.9625 21.0958 17.7335 20.4905 17.7335 19.8628C17.7335 18.6933 18.3201 18.0723 18.5743 17.8031C18.5915 17.785 18.6071 17.7684 18.6209 17.7534L18.6211 17.7533C18.8842 17.4684 19.1999 17.393 19.4042 17.393C19.491 17.393 19.5767 17.3984 19.6531 17.4033L19.6575 17.4036C19.7346 17.4086 19.8008 17.4128 19.8614 17.4128C19.871 17.4128 19.8823 17.4121 19.9035 17.4108C19.9223 17.4096 19.9482 17.4079 19.9761 17.4079C20.034 17.4079 20.1074 17.4149 20.1864 17.4488C20.3474 17.518 20.4744 17.6729 20.5823 17.9301L20.5823 17.9301C20.6461 18.0824 20.7387 18.3059 20.8368 18.5427C20.8917 18.6752 20.9483 18.8118 21.0025 18.9425C21.1567 19.3138 21.2866 19.6237 21.3121 19.6743L21.1334 19.7642M25.8438 26.4744C25.7689 26.4812 25.7068 26.4961 25.6432 26.5114C25.3353 26.5853 24.9911 26.6679 22.9815 25.8829L27.1358 23.948C27.1819 23.9709 27.225 23.9915 27.265 24.0107C27.4318 24.0907 27.5445 24.1448 27.593 24.2242C27.6523 24.3228 27.6523 24.7965 27.4541 25.3497C27.2545 25.9021 26.2807 26.435 25.8438 26.4744ZM21.1334 19.7642L21.312 19.6741C21.3844 19.8175 21.4532 20.0286 21.3319 20.2687C21.3215 20.2894 21.3117 20.3097 21.3019 20.3296C21.2413 20.4534 21.1865 20.5655 21.0662 20.7045M21.1334 19.7642C21.1933 19.8829 21.2332 20.021 21.1532 20.1789L18.907 22.3097C18.7859 22.1501 17.9335 21.0261 17.9335 19.8628C17.9335 18.7734 18.4728 18.202 18.7212 17.9389C18.7382 17.9208 18.7539 17.9042 18.768 17.889C18.9867 17.6522 19.2452 17.593 19.4042 17.593C19.4864 17.593 19.5686 17.5983 19.6481 17.6034C19.7224 17.6082 19.7942 17.6128 19.8614 17.6128C19.8781 17.6128 19.8956 17.6117 19.9138 17.6105C20.0483 17.6019 20.223 17.5906 20.3979 18.0075C20.4615 18.1594 20.5538 18.3822 20.6518 18.6188C20.8596 19.1204 21.093 19.6838 21.1334 19.7642ZM21.0662 20.7045L20.9149 20.5737L21.0664 20.7044C21.0663 20.7044 21.0663 20.7045 21.0662 20.7045ZM12.3999 32.1017L12.2729 32.4763L12.6499 32.3565L17.9557 30.6705C19.3611 31.4261 20.9698 31.8554 22.6796 31.8554C28.1627 31.8554 32.6096 27.4448 32.6096 22.0006C32.6096 16.5564 28.1632 12.1457 22.6796 12.1457C17.1967 12.1457 12.7494 16.5564 12.7494 22.0006C12.7494 23.829 13.2518 25.542 14.1264 27.0095L12.3999 32.1017ZM16.2469 26.8238L16.2802 26.7254L16.2188 26.6415C15.2636 25.3363 14.6991 23.7325 14.6991 22.0006C14.6991 17.6366 18.2775 14.0833 22.6796 14.0833C27.0815 14.0833 30.6603 17.6371 30.6603 22.001C30.6603 26.3649 27.0813 29.9178 22.6798 29.9178C21.0582 29.9178 19.5489 29.4353 18.2889 28.6079L18.2093 28.5557L18.1185 28.5845L15.3518 29.4638L16.2469 26.8238Z" fill="white" stroke="white" stroke-width="0.4"/>
</svg>
