<svg width="21" height="22" viewBox="0 0 21 22" fill="none" xmlns="http://www.w3.org/2000/svg">
<path d="M21 11.1938C21 16.8435 16.3849 21.4233 10.6909 21.4233C8.88323 21.4233 7.18503 20.9613 5.70757 20.1505L0 21.9642L1.86083 16.4757C0.922133 14.9343 0.3815 13.1265 0.3815 11.1938C0.3815 5.54407 4.99707 0.964203 10.6909 0.964203C16.3854 0.964203 21 5.54407 21 11.1938Z" fill="#4FCA5D"/>
<path d="M21 11.1938C21 16.8435 16.3849 21.4233 10.6909 21.4233C8.88323 21.4233 7.18503 20.9613 5.70757 20.1505L0 21.9642L1.86083 16.4757C0.922133 14.9343 0.3815 13.1265 0.3815 11.1938C0.3815 5.54407 4.99707 0.964203 10.6909 0.964203C16.3854 0.964203 21 5.54407 21 11.1938ZM10.6909 2.59334C5.91127 2.59334 2.02347 6.4515 2.02347 11.1938C2.02347 13.0756 2.6369 14.8184 3.67453 16.2361L2.59163 19.4302L5.92247 18.3716C7.29097 19.2701 8.93037 19.7942 10.6911 19.7942C15.47 19.7942 19.3585 15.9365 19.3585 11.1942C19.3585 6.45197 15.4702 2.59334 10.6909 2.59334ZM15.8968 13.5497C15.8331 13.4454 15.6648 13.3824 15.4124 13.2571C15.1594 13.1318 13.9167 12.5249 13.6857 12.4416C13.454 12.3581 13.2851 12.3161 13.1168 12.5669C12.9486 12.818 12.4642 13.3824 12.3165 13.5497C12.169 13.7175 12.0218 13.7385 11.7689 13.613C11.5164 13.4877 10.7023 13.2226 9.737 12.3686C8.9859 11.7041 8.47863 10.8837 8.33117 10.6324C8.18393 10.3815 8.31577 10.246 8.442 10.1211C8.55587 10.0087 8.69493 9.8283 8.82117 9.682C8.94787 9.53547 8.98987 9.43117 9.07363 9.26364C9.15833 9.09634 9.1161 8.95004 9.05263 8.82427C8.98963 8.69897 8.48377 7.4651 8.2733 6.96297C8.06283 6.4613 7.8526 6.54484 7.7049 6.54484C7.55767 6.54484 7.38897 6.52384 7.2205 6.52384C7.05203 6.52384 6.7781 6.5866 6.5464 6.83744C6.31493 7.0885 5.6623 7.69517 5.6623 8.9288C5.6623 10.1627 6.5674 11.3548 6.6941 11.5218C6.82033 11.6889 8.44177 14.3032 11.0108 15.3072C13.58 16.3108 13.58 15.9759 14.0434 15.9339C14.5063 15.8922 15.5381 15.3275 15.7495 14.7423C15.9595 14.1562 15.9595 13.6543 15.8968 13.5497Z" fill="white"/>
</svg>
