<svg width="97" height="96" viewBox="0 0 97 96" fill="none" xmlns="http://www.w3.org/2000/svg">
<path d="M40.6359 57.0177L40.6652 57.047L47.7596 64.1414C47.981 64.3617 48.2818 64.4841 48.5943 64.4825L48.5948 64.4825L48.5949 64.4825H48.5954C48.9079 64.4841 49.2087 64.3617 49.4301 64.1414L49.4593 64.1123H49.4598L56.5251 57.047L56.5544 57.0177H56.5958H66.6253C66.9372 57.0177 67.2364 56.8938 67.4569 56.6733C67.6774 56.4528 67.8013 56.1535 67.8013 55.8416V55.8002L67.8019 55.7996V45.7859V45.7444L67.8312 45.7152L74.9256 38.6208C75.3812 38.1626 75.3813 37.4219 74.9258 36.963L40.6359 57.0177ZM40.6359 57.0177H40.5945H30.5512C29.9018 57.0177 29.3752 56.4911 29.3752 55.8416V45.7864V45.745L29.3459 45.7157L22.2806 38.6504V38.65L22.2515 38.6207C21.7953 38.1625 21.7952 37.4218 22.2514 36.9629C22.2514 36.9629 22.2515 36.9628 22.2515 36.9628L29.3459 29.8684L29.3752 29.8391V29.7977V19.7419C29.3752 19.0925 29.9018 18.5659 30.5512 18.5659H40.5939H40.6353L40.6646 18.5366L47.7299 11.4713H47.7303L47.7596 11.4422C48.2178 10.986 48.9585 10.9859 49.4174 11.4421C49.4175 11.4421 49.4175 11.4421 49.4175 11.4422L56.5119 18.5366L56.5412 18.5659H56.5826H66.6253C66.9371 18.5659 67.2364 18.6898 67.4569 18.9103C67.6775 19.1314 67.8013 19.4302 67.8013 19.7419V29.7971V29.8385L67.8306 29.8678L74.9255 36.9627L40.6359 57.0177ZM31.7268 54.653L31.7267 54.5532L31.7143 45.263V45.2624C31.7159 44.95 31.5936 44.6499 31.3733 44.4278L31.7268 54.653ZM31.7268 54.653H31.8267M31.7268 54.653H31.8267M55.166 54.9359C55.4069 54.6966 55.7328 54.5639 56.0717 54.5656H65.2744H65.3744V54.4656L55.166 54.9359ZM55.166 54.9359L55.2364 55.0068L55.2367 55.0066L55.166 54.9359ZM65.3744 30.3081C65.3727 30.6471 65.5054 30.9729 65.7447 31.2139L72.2456 37.7148L72.3163 37.7855L72.2456 37.8562L65.7447 44.3572L65.3744 30.3081ZM65.3744 30.3081V21.118V21.018H65.2744M65.3744 30.3081L65.2744 21.018M65.2744 21.018H56.0717H65.2744ZM31.8268 21.1055V21.0055H31.9268H41.117C41.4559 21.0072 41.7818 20.8744 42.0227 20.6352L31.8268 21.1055ZM31.8268 21.1055V30.3081C31.8291 30.6471 31.6958 30.9729 31.4571 31.2139L31.3865 31.1431L31.3864 31.1432M31.8268 21.1055L41.952 20.5645C41.73 20.7848 41.4298 20.907 41.1175 20.9055H41.117H31.8268H31.7268V21.0055L31.7268 30.3081L31.7268 30.3088C31.7289 30.6209 31.6063 30.9211 31.3864 31.1432M31.3864 31.1432C31.3863 31.1433 31.3862 31.1434 31.3861 31.1435M31.3864 31.1432L31.3861 31.1435M31.3861 31.1435L24.8017 37.7147L24.7309 37.7854L24.8017 37.8562L31.373 44.4276L31.3861 31.1435ZM31.8267 54.653L41.1294 54.653L41.13 54.653M31.8267 54.653H41.13M41.13 54.653C41.4423 54.6509 41.7431 54.7737 41.9645 54.9936M41.13 54.653L41.9645 54.9936M41.9645 54.9936C41.9646 54.9936 41.9646 54.9937 41.9647 54.9937L41.9645 54.9936ZM65.8157 44.4276L72.387 37.8562L72.4577 37.7855L72.387 37.7148L65.8157 31.1435C65.5952 30.9214 65.4728 30.6211 65.4744 30.3087V30.3081V21.018V20.918H65.3744L56.0717 20.918L56.0711 20.918C55.7589 20.9201 55.4586 20.7974 55.2365 20.5774C55.2365 20.5774 55.2364 20.5773 55.2364 20.5773L48.6651 13.9929L48.5944 13.9221L48.5236 13.9928L41.9523 20.5642L65.8157 44.4276ZM48.5944 61.5075L48.6651 61.4368L48.6652 61.4369L48.5944 61.5075Z" fill="#151515" stroke="white" stroke-width="0.2"/>
<path d="M58.5249 61.3964L58.3619 61.2334L57.2964 60.1679L55.6267 61.8266L55.7985 61.9983L55.8693 62.0691L55.7984 62.1398L37.1811 80.7192L37.0105 80.8895V80.6484V74.7017C37.0105 74.3898 36.8866 74.0905 36.6661 73.8701C36.4456 73.6496 36.1463 73.5256 35.8344 73.5256H29.9263H29.6849L29.8556 73.3549L41.4733 61.7373L39.8157 60.0796L26.0156 73.8667L26.0132 73.869L26.0132 73.869C25.6633 74.1957 25.5471 74.7023 25.7188 75.1495C25.8997 75.5884 26.3261 75.8756 26.8002 75.8778C26.8003 75.8778 26.8003 75.8778 26.8004 75.8778L34.5583 75.8778H34.6583V75.9778V83.7233C34.661 84.1978 34.9482 84.6245 35.3875 84.8051L35.3921 84.807L35.3921 84.8071C35.5297 84.8718 35.68 84.9037 35.8316 84.8996L35.8348 84.8995V84.8996C36.1473 84.9011 36.448 84.7788 36.6694 84.5585L58.5249 61.3964ZM58.5249 61.3964C58.6452 61.5841 58.7107 61.8041 58.7107 62.0305C58.7107 62.3439 58.5852 62.6448 58.3627 62.8653L58.3623 62.8656L36.6695 84.5584L58.5249 61.3964Z" fill="#151515" stroke="white" stroke-width="0.2"/>
<path d="M71.1219 73.8664C71.1221 73.8666 71.1222 73.8668 71.1224 73.8669C71.4559 74.2051 71.5533 74.7103 71.3692 75.1479L71.3689 75.1487C71.1882 75.5882 70.7615 75.8758 70.287 75.878C70.287 75.878 70.2869 75.878 70.2868 75.878L62.5415 75.878H62.4415V75.978L62.4415 83.6852C62.4415 83.6853 62.4415 83.6854 62.4415 83.6854C62.4394 84.1599 62.1517 84.5866 61.7122 84.7673L61.7122 84.7671L61.7076 84.7693C61.5709 84.8338 61.42 84.8654 61.2679 84.8617L61.2679 84.8617L61.265 84.8617C60.9527 84.8633 60.6525 84.7405 60.4304 84.5207C60.4303 84.5206 60.4302 84.5205 60.4301 84.5204L50.5094 74.5997L52.1796 72.9415L59.9187 80.6807L60.0894 80.8514V80.61V74.6639C60.0894 74.0144 60.616 73.4878 61.2655 73.4878H67.1741H67.4156L67.2449 73.3171L59.5054 65.5777L60.2646 64.807C60.5737 64.5041 60.828 64.1496 61.0157 63.7602L71.1219 73.8664Z" fill="#151515" stroke="white" stroke-width="0.2"/>
<path d="M41.0421 37.6772L41.042 37.6773C41.0132 37.9881 41.1092 38.2979 41.3088 38.5385L47.6889 46.1946C47.9131 46.4634 48.245 46.6183 48.5946 46.6178C48.5947 46.6178 48.5947 46.6178 48.5947 46.6178L48.6678 46.6177C49.0415 46.5932 49.381 46.3923 49.5826 46.077L58.5148 32.0409C58.5148 32.0408 58.5148 32.0408 58.5148 32.0407C58.8619 31.4915 58.699 30.7649 58.1499 30.4174C57.6013 30.0703 56.8746 30.2331 56.5271 30.7823L56.3426 31.0738V31.0718L48.5391 43.3386L48.4656 43.4542L48.3779 43.3489L43.1204 37.0325L43.1204 37.0325C42.7045 36.5326 41.962 36.4638 41.4616 36.8796L41.0421 37.6772ZM41.0421 37.6772C41.0704 37.3664 41.2216 37.0792 41.4616 36.8797L41.0421 37.6772Z" fill="#E24641" stroke="white" stroke-width="0.2"/>
</svg>
