<svg width="97" height="96" viewBox="0 0 97 96" fill="none" xmlns="http://www.w3.org/2000/svg">
<path d="M66.6022 75.642C67.1344 75.642 67.5667 75.2102 67.5667 74.6775V73.7101C67.5667 73.1779 67.1344 72.7456 66.6022 72.7456C66.0694 72.7456 65.6377 73.1779 65.6377 73.7101V74.6775C65.6377 75.2102 66.0694 75.642 66.6022 75.642Z" fill="#151515"/>
<path d="M42.7855 18.9808C40.6475 21.9042 39.423 25.3948 39.2651 29.0128H38.0744C37.5417 29.0128 37.1099 29.4445 37.1099 29.9773V34.0741C37.1099 34.6069 37.5417 35.0386 38.0744 35.0386H40.0299L40.1441 36.6978C38.9706 37.106 38.0865 38.0837 37.7983 39.2915C37.5314 40.3835 37.6755 41.5358 38.2042 42.5283C38.7324 43.5209 39.6079 44.2833 40.6636 44.6714C40.918 49.9154 43.8711 54.6534 48.4675 57.1905V60.6724L47.1448 61.2379C43.2891 59.3893 39.6239 57.1663 36.2029 54.6018C35.8596 54.3446 35.3882 54.3446 35.0455 54.6018C30.9096 57.702 26.4212 60.3015 21.6734 62.3443L21.5833 62.3827H21.5839C21.2296 62.5349 21 62.8833 21 63.2691V73.1644C21 78.3084 23.4572 82.8255 28.1058 86.2289H28.1064C30.2392 87.7859 32.605 88.9961 35.1162 89.8137C35.2901 89.8642 35.475 89.8653 35.6495 89.816C38.2336 89.0042 40.677 87.7975 42.8918 86.2381C43.8437 85.5687 44.7381 84.8212 45.566 84.0037H75.144C75.6762 84.0037 76.1085 83.572 76.1085 83.0392V71.2011C76.1085 71.1747 76.1073 71.1477 76.105 71.1207C75.8484 68.1623 74.0785 65.5484 71.4272 64.2119C71.41 64.2033 71.3922 64.1958 71.3744 64.1872L63.1383 60.6719L63.1389 57.1503C67.6961 54.6018 70.6178 49.8843 70.8699 44.6692C71.9228 44.2794 72.7959 43.5164 73.3229 42.5249C73.8494 41.5328 73.9929 40.3823 73.7265 39.2915C73.4389 38.0876 72.5588 37.1116 71.3904 36.7017L71.5053 35.0386H73.5318C74.0646 35.0386 74.4963 34.6069 74.4963 34.0741V29.9773C74.4963 29.4445 74.0646 29.0128 73.5318 29.0128H72.3423C72.1896 25.3885 70.9633 21.8916 68.8189 18.9659C66.7821 16.185 63.9304 14.1062 60.6597 13.017L60.7831 11.8263H60.7837C60.8112 11.5547 60.7234 11.2843 60.5408 11.0811C60.3577 10.8784 60.0982 10.7625 59.8249 10.7625H51.7812C51.5079 10.7625 51.2478 10.8784 51.0647 11.0811C50.8815 11.2837 50.7937 11.5547 50.8218 11.8263L50.9453 13.017V13.0176C47.6722 14.1101 44.8201 16.194 42.7854 18.9808L42.7855 18.9808ZM65.9541 70.168V63.9717L67.2487 64.524V70.1674L65.9541 70.168ZM68.8602 72.097V82.0745H47.2495C49.2032 79.5157 50.2567 76.3833 50.247 73.1638V72.0965L68.8602 72.097ZM41.8218 84.6309C39.8452 86.0157 37.6796 87.1087 35.3912 87.8764C33.197 87.1139 31.1261 86.0341 29.2449 84.6716C25.0539 81.6036 22.9285 77.7318 22.9285 73.1636V63.901C27.4145 61.9284 31.6715 59.4712 35.6232 56.5738C39.5754 59.4713 43.8323 61.9285 48.3184 63.901V73.1636C48.3184 77.7094 46.1328 81.5674 41.8224 84.6308L41.8218 84.6309ZM74.1791 71.2421V82.0744H70.7896V71.1325C70.7896 70.5997 70.3579 70.168 69.8251 70.168H69.1787V65.3477L70.591 65.9506V65.95C72.6152 66.9822 73.9702 68.9795 74.1797 71.2427L74.1791 71.2421ZM64.0254 63.1484V70.1675L50.248 70.168V63.2685C50.2474 63.0463 50.1699 62.8316 50.0293 62.6599C53.9614 64.2432 58.3711 64.1423 62.2267 62.3809L64.0254 63.1484ZM61.21 60.7222C57.7625 62.2253 53.8443 62.2253 50.3967 60.7222V58.0876C53.8816 59.4109 57.7321 59.4011 61.21 58.06V60.7222ZM71.8534 39.7508C72.0268 40.4593 71.8993 41.2079 71.5021 41.8193C71.1042 42.4307 70.4721 42.851 69.7544 42.9796C69.2934 43.0617 68.9581 43.4618 68.9581 43.9297V43.9521C68.9581 48.6649 66.4436 53.0195 62.3622 55.3762C58.2808 57.7323 53.2523 57.7323 49.1709 55.3762C45.0895 53.0195 42.5756 48.6649 42.5756 43.9521V43.9309C42.5756 43.4624 42.2391 43.0616 41.7776 42.9807C41.0582 42.8533 40.4238 42.4342 40.0248 41.8222C39.6257 41.2102 39.4977 40.4604 39.6717 39.7507C39.794 39.2105 40.1735 38.7639 40.6873 38.5566C40.8682 38.7725 41.0903 38.9504 41.3412 39.0796L43.0377 39.9505H43.0371C43.4103 40.1417 43.8547 40.1343 44.2209 39.9299C44.5872 39.7255 44.8278 39.3523 44.8611 38.9338L45.1722 35.0391H65.9246C66.0814 35.7159 66.2679 36.3882 66.4872 37.0449L67.3415 39.6083H67.3421C67.4759 40.0141 67.8083 40.3236 68.2228 40.4281C68.325 40.4539 68.4295 40.4671 68.5345 40.4671C68.852 40.4671 69.1569 40.346 69.3888 40.1295L70.5806 39.0169C70.7133 38.8918 70.8315 38.7523 70.9331 38.6007C71.3999 38.8229 71.7392 39.2466 71.8534 39.7506L71.8534 39.7508ZM41.9638 35.0391H43.2389L43.0202 37.7719L42.2239 37.3631C42.1602 37.3304 42.1177 37.2661 42.1125 37.1943L41.9638 35.0391ZM69.4181 37.2833C69.4101 37.4067 69.3549 37.5221 69.2648 37.606L68.8405 38.0021L68.3181 36.4348C68.1654 35.9761 68.0299 35.5093 67.9099 35.0391H69.5736L69.4181 37.2833ZM72.5689 33.1101H67.1275C66.8491 32.9648 66.5167 32.9648 66.2383 33.1101H44.2719H44.257H39.0401V30.9422H72.5687L72.5689 33.1101ZM52.2368 14.6475C52.6955 14.5258 52.9975 14.0883 52.9487 13.6158L52.8523 12.6921H58.7564L58.66 13.6158C58.6112 14.0883 58.9126 14.5258 59.3719 14.6475C60.1085 14.845 60.8278 15.1039 61.5219 15.4214V16.929C61.5213 18.6795 60.9909 20.3886 60.0005 21.8313C59.0101 23.2746 57.6059 24.3837 55.9732 25.0129C54.2554 24.4353 52.7627 23.3318 51.7064 21.8593C50.6501 20.3868 50.0834 18.6196 50.0868 16.8072V15.423C50.7803 15.1044 51.4997 14.8449 52.2368 14.6474L52.2368 14.6475ZM48.1578 16.4943V16.8072C48.1538 19.0446 48.8599 21.225 50.1747 23.0357C51.4894 24.8458 53.3448 26.1922 55.4737 26.8805L55.693 26.9517H55.6925C55.8917 27.016 56.1064 27.0143 56.3045 26.9465C58.3901 26.2283 60.1998 24.8775 61.4813 23.0816C62.7627 21.2864 63.451 19.1357 63.4516 16.9295V16.4909C64.927 17.4663 66.2205 18.6926 67.2716 20.1152C69.1702 22.708 70.2628 25.8029 70.4126 29.0133H41.199C41.354 25.808 42.446 22.7188 44.3388 20.1279C45.3894 18.7024 46.6822 17.4727 48.1583 16.4943L48.1578 16.4943Z" fill="#151515"/>
<path d="M54.089 21.1534H57.8885C58.4207 21.1534 58.853 20.7216 58.853 20.1889C58.853 19.6567 58.4207 19.2244 57.8885 19.2244H54.089C53.5568 19.2244 53.1245 19.6567 53.1245 20.1889C53.1245 20.7216 53.5568 21.1534 54.089 21.1534Z" fill="#151515"/>
<path d="M54.089 17.6513H57.8885C58.4207 17.6513 58.853 17.2196 58.853 16.6868C58.853 16.154 58.4207 15.7223 57.8885 15.7223H54.089C53.5568 15.7223 53.1245 16.154 53.1245 16.6868C53.1245 17.2196 53.5568 17.6513 54.089 17.6513Z" fill="#151515"/>
<path d="M40.8867 67.8731L33.855 74.314L30.419 70.588H30.4184C30.0573 70.1964 29.4476 70.1718 29.0555 70.5329C28.6639 70.894 28.6392 71.5037 29.0004 71.8958L33.0879 76.3285H33.0885C33.4485 76.7189 34.057 76.7447 34.4486 76.3859L42.1893 69.2957H42.1898C42.5825 68.9357 42.6095 68.3254 42.2495 67.9327C41.8896 67.5395 41.2793 67.5131 40.8866 67.873L40.8867 67.8731Z" fill="#E24641"/>
</svg>
