<svg width="97" height="96" viewBox="0 0 97 96" fill="none" xmlns="http://www.w3.org/2000/svg">
<path d="M76.0225 33.506C75.2374 28.5954 70.9794 24.9323 65.9605 24.9323H35.3646V20.3995C35.3646 18.5247 33.8399 17 31.965 17H22.8995C21.0247 17 19.5 18.5247 19.5 20.3995V72.526C19.5 72.7248 19.5648 72.9023 19.6548 73.0647C19.8597 73.9192 20.277 74.7225 20.922 75.3918C21.9424 76.4512 23.3644 77.0587 24.8219 77.0587H60.295V83.8578C60.295 84.4836 60.8019 84.991 61.4282 84.991H72.759C74.6334 84.991 76.1596 83.4658 76.1596 81.5904V33.998C76.1596 33.8195 76.104 33.6566 76.023 33.5063L76.0225 33.506ZM22.8989 19.2668H31.9644C32.5896 19.2668 33.0975 19.7752 33.0975 20.3999V65.7273C33.0975 66.352 32.5896 66.8604 31.9644 66.8604H24.5987C23.5682 66.8604 22.5893 67.1635 21.7657 67.7209V20.4005C21.7657 19.7758 22.2736 19.2673 22.8989 19.2673V19.2668ZM65.9599 82.725H62.5603V77.0591H66.5264C68.0891 77.0591 69.3594 78.3299 69.3594 79.892C69.3594 81.4542 68.0891 82.725 66.5264 82.725H65.9599ZM73.8921 81.5908C73.8921 82.2161 73.3832 82.725 72.7579 82.725H70.7628C71.3066 81.9141 71.6258 80.9397 71.6258 79.892V79.3254C71.6258 79.1519 71.5869 78.987 71.516 78.8398C71.4513 78.5332 71.3557 78.2383 71.2383 77.9545C71.2014 77.8655 71.1513 77.7845 71.1093 77.698C71.0157 77.5038 70.9186 77.313 70.8027 77.1334C70.739 77.0353 70.6661 76.9458 70.5958 76.8522C70.4805 76.6979 70.3616 76.5486 70.2296 76.4085C70.1456 76.319 70.0566 76.236 69.9665 76.153C69.8284 76.0261 69.6852 75.9072 69.5335 75.7959C69.4338 75.7225 69.3346 75.6522 69.2294 75.5859C69.0675 75.4837 68.8981 75.3952 68.7246 75.3117C68.6168 75.2596 68.5116 75.205 68.3998 75.1605C68.204 75.0826 68.0006 75.0254 67.7942 74.9723C67.6931 74.946 67.5964 74.9111 67.4927 74.8908C67.1796 74.8296 66.8578 74.7927 66.5265 74.7927H24.8215C23.9761 74.7927 23.1495 74.4381 22.5541 73.8194C22.0209 73.2659 21.7416 72.5678 21.7684 71.8524C21.7947 71.1361 22.0882 70.4668 22.6082 69.9558C23.1338 69.4211 23.841 69.1267 24.5988 69.1267H31.9645C33.8394 69.1267 35.3641 67.602 35.3641 65.7271V27.1989H65.96C69.957 27.1989 73.3424 30.1816 73.8326 34.1346C73.8736 34.4635 73.8923 34.7928 73.8923 35.1312L73.8921 81.5908Z" fill="#151515"/>
<path d="M52.947 47.5963H51.7764C46.4757 47.5963 42.1631 51.909 42.1631 57.2096V66.8604C42.1631 67.4862 42.67 67.9936 43.2963 67.9936H61.4272C62.0535 67.9936 62.5604 67.4862 62.5604 66.8604V57.2096C62.5604 51.9089 58.2477 47.5963 52.9471 47.5963H52.947ZM60.2939 65.7272H44.4293V57.2096C44.4293 53.158 47.7246 49.8627 51.7762 49.8627H52.9469C56.9985 49.8627 60.2938 53.158 60.2938 57.2096L60.2939 65.7272Z" fill="#151515"/>
<path d="M52.3618 45.3299C56.1109 45.3299 59.1609 42.2799 59.1609 38.5308C59.1609 34.7817 56.1109 31.7317 52.3618 31.7317C48.6128 31.7317 45.5627 34.7817 45.5627 38.5308C45.5627 42.2799 48.6128 45.3299 52.3618 45.3299ZM52.3618 33.9981C54.862 33.9981 56.8946 36.0317 56.8946 38.5308C56.8946 41.0299 54.862 43.0635 52.3618 43.0635C49.8617 43.0635 47.8291 41.0299 47.8291 38.5308C47.8291 36.0317 49.8617 33.9981 52.3618 33.9981Z" fill="#151515"/>
<path d="M54.9596 55.8601L51.2282 59.5914L49.7632 58.1264C49.3206 57.6838 48.6038 57.6838 48.1606 58.1264C47.7179 58.5691 47.7179 59.2859 48.1606 59.7291L50.427 61.9954C50.6485 62.2165 50.9384 62.3273 51.2283 62.3273C51.5182 62.3273 51.808 62.2165 52.0296 61.9954L56.5623 57.4627C57.005 57.0201 57.005 56.3032 56.5623 55.8601C56.1197 55.4174 55.4024 55.4174 54.9597 55.8601H54.9596Z" fill="#E24641"/>
</svg>
