<svg width="97" height="96" viewBox="0 0 97 96" fill="none" xmlns="http://www.w3.org/2000/svg">
<path d="M77.4967 21H34.5991C32.789 21 31.0532 21.719 29.7735 22.999C28.4935 24.2786 27.7745 26.0143 27.7745 27.8246C27.7745 28.0832 27.8772 28.3312 28.06 28.514C28.2428 28.6968 28.4909 28.7996 28.7495 28.7996H39.4739V40.4989H19.9749C19.4366 40.4989 19 40.9355 19 41.4739V82.4216C19 82.6801 19.1027 82.9282 19.2855 83.111C19.4683 83.2938 19.7164 83.3965 19.9749 83.3965H77.4967C77.7553 83.3965 78.0034 83.2938 78.1862 83.111C78.369 82.9282 78.4717 82.6801 78.4717 82.4216V21.9749C78.4717 21.7164 78.369 21.4683 78.1862 21.2855C78.0034 21.1027 77.7553 21 77.4967 21ZM29.8213 26.8497C30.1221 25.369 31.0922 24.1111 32.4485 23.4447C33.8042 22.7784 35.3929 22.7784 36.7487 23.4447C38.1049 24.1111 39.0751 25.369 39.3758 26.8497H29.8213ZM20.9493 42.4488H48.2478V81.4466H20.9493V42.4488ZM76.5212 81.4466H50.1977V41.4739C50.1977 41.2153 50.095 40.9672 49.9122 40.7844C49.7294 40.6016 49.4813 40.4989 49.2228 40.4989H41.4232V27.8246C41.421 25.9892 40.6794 24.2321 39.3662 22.9499H76.5211L76.5212 81.4466Z" fill="#151515"/>
<path d="M54.098 35.6242H72.622C73.1604 35.6242 73.5969 35.1877 73.5969 34.6493C73.5969 34.1109 73.1604 33.6743 72.622 33.6743H54.098C53.5596 33.6743 53.123 34.1109 53.123 34.6493C53.123 35.1877 53.5596 35.6242 54.098 35.6242Z" fill="#151515"/>
<path d="M54.098 45.3737H72.622C73.1604 45.3737 73.5969 44.9372 73.5969 44.3988C73.5969 43.8604 73.1604 43.4238 72.622 43.4238H54.098C53.5596 43.4238 53.123 43.8604 53.123 44.3988C53.123 44.9372 53.5596 45.3737 54.098 45.3737Z" fill="#151515"/>
<path d="M54.098 55.1231H72.622C73.1604 55.1231 73.5969 54.6866 73.5969 54.1482C73.5969 53.6098 73.1604 53.1732 72.622 53.1732H54.098C53.5596 53.1732 53.123 53.6098 53.123 54.1482C53.123 54.6866 53.5596 55.1231 54.098 55.1231Z" fill="#151515"/>
<path d="M54.098 64.8726H72.622C73.1604 64.8726 73.5969 64.4361 73.5969 63.8977C73.5969 63.3593 73.1604 62.9227 72.622 62.9227H54.098C53.5596 62.9227 53.123 63.3593 53.123 63.8977C53.123 64.4361 53.5596 64.8726 54.098 64.8726Z" fill="#151515"/>
<path d="M44.3485 37.5741H49.2232C49.4817 37.5741 49.7298 37.4714 49.9126 37.2886C50.0954 37.1058 50.1982 36.8577 50.1982 36.5992V31.7245C50.1982 31.4659 50.0954 31.2178 49.9126 31.035C49.7298 30.8522 49.4817 30.7495 49.2232 30.7495H44.3485C43.8101 30.7495 43.3735 31.1861 43.3735 31.7245V36.5992C43.3735 36.8577 43.4763 37.1058 43.6591 37.2886C43.8419 37.4714 44.0899 37.5741 44.3485 37.5741ZM45.3234 32.6994H48.2483V35.6242H45.3234V32.6994Z" fill="#151515"/>
<path d="M45.3236 44.3988H23.8748C23.3365 44.3988 22.8999 44.8354 22.8999 45.3737V53.1733C22.8999 53.4318 23.0026 53.6799 23.1854 53.8627C23.3682 54.0455 23.6163 54.1483 23.8748 54.1483H45.3236C45.5822 54.1483 45.8303 54.0455 46.0131 53.8627C46.1959 53.6799 46.2986 53.4318 46.2986 53.1733V45.3737C46.2986 45.1152 46.1959 44.8671 46.0131 44.6843C45.8303 44.5015 45.5822 44.3988 45.3236 44.3988ZM44.3487 52.1984H24.8498V46.3487H44.3487V52.1984Z" fill="#E24641"/>
<path d="M27.7745 57.0731H25.8246C25.3076 57.0731 24.8114 57.2786 24.4458 57.6442C24.0802 58.0098 23.8748 58.5059 23.8748 59.023V60.9729C23.8748 61.49 24.0802 61.9862 24.4458 62.3518C24.8114 62.7174 25.3076 62.9228 25.8246 62.9228H27.7745C28.2916 62.9228 28.7878 62.7174 29.1534 62.3518C29.519 61.9862 29.7244 61.49 29.7244 60.9729V59.023C29.7244 58.5059 29.519 58.0098 29.1534 57.6442C28.7878 57.2786 28.2916 57.0731 27.7745 57.0731ZM25.8246 60.9729V59.023H27.7745V60.9729H25.8246Z" fill="#151515"/>
<path d="M35.5739 57.0731H33.624C33.1069 57.0731 32.6107 57.2786 32.2451 57.6442C31.8795 58.0098 31.6741 58.5059 31.6741 59.023V60.9729C31.6741 61.49 31.8795 61.9862 32.2451 62.3518C32.6107 62.7174 33.1069 62.9228 33.624 62.9228H35.5739C36.0909 62.9228 36.5871 62.7174 36.9527 62.3518C37.3183 61.9862 37.5237 61.49 37.5237 60.9729V59.023C37.5237 58.5059 37.3183 58.0098 36.9527 57.6442C36.5871 57.2786 36.0909 57.0731 35.5739 57.0731ZM33.624 60.9729V59.023H35.5739V60.9729H33.624Z" fill="#151515"/>
<path d="M43.3737 57.0731H41.4238C40.9067 57.0731 40.4105 57.2786 40.0449 57.6442C39.6793 58.0098 39.4739 58.5059 39.4739 59.023V60.9729C39.4739 61.49 39.6793 61.9862 40.0449 62.3518C40.4105 62.7174 40.9067 62.9228 41.4238 62.9228H43.3737C43.8907 62.9228 44.3869 62.7174 44.7525 62.3518C45.1181 61.9862 45.3236 61.49 45.3236 60.9729V59.023C45.3236 58.5059 45.1181 58.0098 44.7525 57.6442C44.3869 57.2786 43.8907 57.0731 43.3737 57.0731ZM41.4238 60.9729V59.023H43.3737V60.9729H41.4238Z" fill="#151515"/>
<path d="M27.7745 64.8727H25.8246C25.3076 64.8727 24.8114 65.0781 24.4458 65.4437C24.0802 65.8093 23.8748 66.3055 23.8748 66.8226V68.7725C23.8748 69.2895 24.0802 69.7857 24.4458 70.1513C24.8114 70.5169 25.3076 70.7224 25.8246 70.7224H27.7745C28.2916 70.7224 28.7878 70.5169 29.1534 70.1513C29.519 69.7857 29.7244 69.2895 29.7244 68.7725V66.8226C29.7244 66.3055 29.519 65.8093 29.1534 65.4437C28.7878 65.0781 28.2916 64.8727 27.7745 64.8727ZM25.8246 68.7725V66.8226H27.7745V68.7725H25.8246Z" fill="#151515"/>
<path d="M35.5739 64.8727H33.624C33.1069 64.8727 32.6107 65.0781 32.2451 65.4437C31.8795 65.8093 31.6741 66.3055 31.6741 66.8226V68.7725C31.6741 69.2895 31.8795 69.7857 32.2451 70.1513C32.6107 70.5169 33.1069 70.7224 33.624 70.7224H35.5739C36.0909 70.7224 36.5871 70.5169 36.9527 70.1513C37.3183 69.7857 37.5237 69.2895 37.5237 68.7725V66.8226C37.5237 66.3055 37.3183 65.8093 36.9527 65.4437C36.5871 65.0781 36.0909 64.8727 35.5739 64.8727ZM33.624 68.7725V66.8226H35.5739V68.7725H33.624Z" fill="#151515"/>
<path d="M43.3737 64.8727H41.4238C40.9067 64.8727 40.4105 65.0781 40.0449 65.4437C39.6793 65.8093 39.4739 66.3055 39.4739 66.8226V68.7725C39.4739 69.2895 39.6793 69.7857 40.0449 70.1513C40.4105 70.5169 40.9067 70.7224 41.4238 70.7224H43.3737C43.8907 70.7224 44.3869 70.5169 44.7525 70.1513C45.1181 69.7857 45.3236 69.2895 45.3236 68.7725V66.8226C45.3236 66.3055 45.1181 65.8093 44.7525 65.4437C44.3869 65.0781 43.8907 64.8727 43.3737 64.8727ZM41.4238 68.7725V66.8226H43.3737V68.7725H41.4238Z" fill="#151515"/>
<path d="M27.7745 72.6721H25.8246C25.3076 72.6721 24.8114 72.8776 24.4458 73.2432C24.0802 73.6088 23.8748 74.1049 23.8748 74.622V76.5719C23.8748 77.089 24.0802 77.5852 24.4458 77.9508C24.8114 78.3164 25.3076 78.5218 25.8246 78.5218H27.7745C28.2916 78.5218 28.7878 78.3164 29.1534 77.9508C29.519 77.5852 29.7244 77.089 29.7244 76.5719V74.622C29.7244 74.1049 29.519 73.6088 29.1534 73.2432C28.7878 72.8776 28.2916 72.6721 27.7745 72.6721ZM25.8246 76.5719V74.622H27.7745V76.5719H25.8246Z" fill="#151515"/>
<path d="M35.5739 72.6721H33.624C33.1069 72.6721 32.6107 72.8776 32.2451 73.2432C31.8795 73.6088 31.6741 74.1049 31.6741 74.622V76.5719C31.6741 77.089 31.8795 77.5852 32.2451 77.9508C32.6107 78.3164 33.1069 78.5218 33.624 78.5218H35.5739C36.0909 78.5218 36.5871 78.3164 36.9527 77.9508C37.3183 77.5852 37.5237 77.089 37.5237 76.5719V74.622C37.5237 74.1049 37.3183 73.6088 36.9527 73.2432C36.5871 72.8776 36.0909 72.6721 35.5739 72.6721ZM33.624 76.5719V74.622H35.5739V76.5719H33.624Z" fill="#151515"/>
<path d="M43.3737 72.6721H41.4238C40.9067 72.6721 40.4105 72.8776 40.0449 73.2432C39.6793 73.6088 39.4739 74.1049 39.4739 74.622V76.5719C39.4739 77.089 39.6793 77.5852 40.0449 77.9508C40.4105 78.3164 40.9067 78.5218 41.4238 78.5218H43.3737C43.8907 78.5218 44.3869 78.3164 44.7525 77.9508C45.1181 77.5852 45.3236 77.089 45.3236 76.5719V74.622C45.3236 74.1049 45.1181 73.6088 44.7525 73.2432C44.3869 72.8776 43.8907 72.6721 43.3737 72.6721ZM41.4238 76.5719V74.622H43.3737V76.5719H41.4238Z" fill="#151515"/>
</svg>
