<svg width="97" height="96" viewBox="0 0 97 96" fill="none" xmlns="http://www.w3.org/2000/svg">
<mask id="path-1-inside-1_102_517" fill="white">
<rect x="17" y="32.9479" width="65" height="51.1524" rx="2"/>
</mask>
<rect x="17" y="32.9479" width="65" height="51.1524" rx="2" stroke="#151515" stroke-width="4.2" mask="url(#path-1-inside-1_102_517)"/>
<path d="M27.1068 74.6447L41.3414 49.9896L55.576 74.6447H27.1068ZM55.6628 74.6447L55.6626 74.6447C55.6627 74.6447 55.6628 74.6447 55.6628 74.6447Z" stroke="#E24641" stroke-width="2.1" stroke-linejoin="round"/>
<path d="M47.6427 49.423C48.7392 47.0487 50.466 45.0206 52.6352 43.5596C54.8043 42.0985 57.3327 41.2605 59.945 41.1367C62.5574 41.013 65.1537 41.6082 67.4512 42.8576C69.7488 44.1069 71.6596 45.9626 72.9757 48.2227C74.2918 50.4827 74.9627 53.0604 74.9154 55.6753C74.8681 58.2901 74.1044 60.8419 72.7075 63.0529C71.3106 65.2639 69.3339 67.0493 66.9927 68.2148C64.6514 69.3803 62.0353 69.8812 59.4292 69.6631L59.6056 67.5558C61.8262 67.7417 64.0554 67.3149 66.0503 66.3218C68.0452 65.3286 69.7295 63.8073 70.9198 61.9234C72.1101 60.0395 72.7608 57.8651 72.8011 55.637C72.8414 53.409 72.2697 51.2125 71.1483 49.2868C70.0269 47.3611 68.3987 45.7798 66.441 44.7153C64.4833 43.6507 62.2711 43.1435 60.0451 43.249C57.8191 43.3545 55.6648 44.0685 53.8165 45.3134C51.9682 46.5584 50.4968 48.2864 49.5625 50.3096L47.6427 49.423Z" fill="#151515"/>
<path d="M79.7832 29.2587V23.1882C79.7832 22.0837 78.8878 21.1882 77.7832 21.1882H24.3563C23.8653 21.1882 23.3913 21.3689 23.0249 21.6958L20.7436 23.7311C19.8522 24.5264 19.8522 25.9206 20.7436 26.7159L23.0249 28.7511C23.3913 29.0781 23.8653 29.2587 24.3563 29.2587H72.2437" stroke="#151515" stroke-width="2.1" stroke-linecap="round" stroke-linejoin="round"/>
<rect x="70.6416" y="21.6561" width="2.37461" height="3.98959" rx="1.1873" fill="#151515"/>
</svg>
