<svg width="103" height="71" viewBox="0 0 103 71" fill="none" xmlns="http://www.w3.org/2000/svg">
<rect x="37.7681" width="38.256" height="61.1788" rx="19.128" transform="rotate(19.2701 37.7681 0)" fill="white" fill-opacity="0.2"/>
<circle cx="95.8909" cy="11.0459" r="6.33763" fill="white"/>
<circle cx="2.77615" cy="53.1606" r="2.77615" fill="white"/>
<circle cx="8.28847" cy="6.56557" r="3.48037" stroke="white" stroke-width="2"/>
<path d="M60.6996 58.7983L19.8136 48.3202C14.985 45.7754 19.0399 43.0108 19.0399 43.0108L62.0665 51.9372C55.4997 55.7658 60.6996 58.7983 60.6996 58.7983ZM60.6996 58.7983C66.4612 58.7983 64.356 53.2451 64.356 53.2451L67.6862 48.6656C42.2927 46.5841 19.8133 37.842 19.8133 37.842L20.2109 43.3168M59.7778 53.6614C59.7778 53.6614 62.0673 50.0772 64.3573 53.2451M37.2916 52.7993C37.2916 52.7993 35.1829 49.6539 38.6984 47.0894" stroke="white" stroke-width="1.96155" stroke-miterlimit="10"/>
<path d="M75.6576 36.4704V32.863L71.0782 32.8627C69.5607 21.9976 64.1135 17.2873 59.4596 15.2517L59.4604 27.2438C59.4604 27.9151 59.1885 28.522 58.7485 28.9615C58.3085 29.4003 57.7021 29.6722 57.0322 29.6722C55.6902 29.6722 54.6039 28.5855 54.6039 27.2439V13.8735C53.1441 13.6668 52.2088 13.7154 52.2088 13.7154C51.5245 13.7154 50.8668 13.7487 50.2328 13.8139V27.2432C50.2328 28.5852 49.1451 29.6715 47.8049 29.6715C47.1332 29.6715 46.5268 29.3996 46.0872 28.9608C45.6485 28.5212 45.3766 27.9148 45.3766 27.2431V15.0693C35.4309 19.4362 34.0325 32.863 34.0325 32.863H29.1763V36.4704H75.6576Z" stroke="white" stroke-width="1.96155" stroke-miterlimit="10"/>
</svg>
