<svg width="101" height="51" viewBox="0 0 101 51" fill="none" xmlns="http://www.w3.org/2000/svg">
<path d="M8.8591 50.2787L3.01807 47.9422L89.7574 25.7463L8.8591 50.2787Z" fill="#0D2958"/>
<path d="M38.9403 7.34717L32.2231 15.5246H40.1085L42.737 8.22332L38.9403 7.34717Z" fill="#0D2958"/>
<path d="M46.5338 23.7019L45.9497 7.93115L48.8702 8.51525L49.7464 23.7019H46.5338Z" fill="#0D2958"/>
<path d="M1.26587 24.5779C-1.77146 28.5498 1.36322 33.0474 3.31023 34.7997L23.4618 31.5872C20.4244 23.1761 32.5154 10.4356 38.9405 5.11666L47.702 7.34691L68.4377 12.6038L95.5985 18.1528L74.5708 11.7277L52.0828 5.0105L38.9405 0.921779C37.4802 0.532377 33.8004 -0.188016 30.7631 0.0456247C26.9664 0.337676 18.789 4.4264 16.7446 6.17871C15.1091 7.58055 16.6472 7.34691 17.6208 7.05486C26.0318 4.71845 30.471 5.30255 31.6392 5.88665L20.2492 16.4005H7.1069C6.42545 17.4714 4.30321 20.606 1.26587 24.5779Z" fill="#459AE9"/>
<path d="M36.6041 24.87C33.8004 24.87 30.3737 27.0117 29.0108 28.0826L74.5708 22.8256L65.5172 23.4097C57.0477 23.8965 39.4078 24.87 36.6041 24.87Z" fill="#459AE9"/>
<path d="M85.0844 20.1974V17.2769L97.9347 19.0292C101.439 19.6133 100.855 21.6576 99.3949 21.9497L30.4708 37.4284L24.0457 40.933C20.3074 41.6339 10.4166 40.641 5.93848 40.0569V35.9681L18.2046 35.384L24.0457 32.4635H30.4708L36.6039 27.7907C56.366 25.941 96.416 22.0665 98.5188 21.3656C100.622 20.6647 99.7843 20.2947 99.1029 20.1974H85.0844Z" fill="#0D2958"/>
<path d="M57.6318 19.029V12.0198L82.7483 16.1085L83.0403 19.6131L57.6318 19.029Z" fill="#0D2958"/>
</svg>
