<svg width="13" height="13" viewBox="0 0 13 13" fill="none" xmlns="http://www.w3.org/2000/svg">
<path fill-rule="evenodd" clip-rule="evenodd" d="M2.3616 0.00976562C2.24055 0.00976562 2.12305 0.0537663 2.0315 0.134266L0.382521 1.58327C-0.196301 2.16026 -0.0767728 3.14527 0.703975 4.54327C1.36418 5.72677 2.43485 7.08427 3.71761 8.36527C5.93117 10.5793 8.20221 12.0098 9.50329 12.0098C9.9753 12.0098 10.2581 11.8263 10.4117 11.6723L11.8939 10.0088C11.9824 9.90877 12.0276 9.77777 12.019 9.64427C12.0103 9.51077 11.9488 9.38677 11.8476 9.29877L9.34663 7.13177C9.19404 6.99927 8.97533 6.97177 8.79527 7.06227L7.11679 7.90127L4.12553 4.91077L4.96477 3.23327C5.0548 3.05277 5.02835 2.83577 4.89611 2.68277L2.74053 0.183266C2.65305 0.0822659 2.52945 0.0202656 2.39619 0.010766C2.38449 0.0102663 2.37279 0.00976562 2.3616 0.00976562ZM9.50329 11.0098C8.64523 11.0098 6.62495 9.85877 4.42461 7.65827C3.20542 6.44027 2.19426 5.16077 1.57729 4.05577C0.90641 2.85427 0.994912 2.38327 1.05595 2.32277L2.31227 1.21877L3.92106 3.08377L3.06962 4.78577C2.97349 4.97827 3.01163 5.21077 3.16371 5.36327L6.66462 8.86277C6.81772 9.01577 7.04914 9.05277 7.24191 8.95677L8.94379 8.10627L10.8095 9.72327L9.71539 10.9543C9.66808 10.9918 9.60603 11.0098 9.50329 11.0098Z" fill="white"/>
</svg>
