<svg width="11" height="14" viewBox="0 0 11 14" fill="none" xmlns="http://www.w3.org/2000/svg">
<path fill-rule="evenodd" clip-rule="evenodd" d="M5.38169 12.8792C5.2778 12.9664 5.14891 13.0098 5.02002 13.0098C4.89113 13.0098 4.76224 12.9664 4.65835 12.8792C4.46891 12.7205 0.0200195 8.94997 0.0200195 4.90806C0.0200195 2.20731 2.2628 0.00976562 5.02002 0.00976562C7.77724 0.00976562 10.02 2.20731 10.02 4.90806C10.02 8.94997 5.57113 12.7205 5.38169 12.8792ZM5.02002 1.0931C2.87613 1.0931 1.13113 2.80422 1.13113 4.90806C1.13113 7.83414 3.99113 10.7705 5.01946 11.7314C6.0478 10.7694 8.90891 7.82872 8.90891 4.90806C8.90891 2.80422 7.16391 1.0931 5.02002 1.0931ZM5.02002 7.09152C3.79446 7.09152 2.7978 6.11977 2.7978 4.92485C2.7978 3.72993 3.79446 2.75818 5.02002 2.75818C6.24558 2.75818 7.24224 3.72993 7.24224 4.92485C7.24224 6.11977 6.24558 7.09152 5.02002 7.09152ZM5.02002 3.84152C4.4078 3.84152 3.90891 4.32793 3.90891 4.92485C3.90891 5.52231 4.4078 6.00818 5.02002 6.00818C5.63224 6.00818 6.13113 5.52231 6.13113 4.92485C6.13113 4.32793 5.63224 3.84152 5.02002 3.84152Z" fill="white"/>
</svg>
